<svg width="200" height="200" viewBox="0 0 200 200" fill="none" xmlns="http://www.w3.org/2000/svg">
<path d="M179.168 9.89062H20.832C10.207 9.89062 1.5625 18.5352 1.5625 29.1602V137.496C1.5625 148.121 10.207 156.766 20.832 156.766H80.6719L80.6133 158.387C79.9727 175.973 75.2812 184.891 66.668 184.891C65.2305 184.891 64.0625 186.059 64.0625 187.496C64.0625 188.934 65.2305 190.102 66.668 190.102H133.336C134.766 190.102 135.93 188.934 135.93 187.496C135.93 186.059 134.762 184.891 133.324 184.891C124.711 184.891 120.02 175.973 119.379 158.387L119.32 156.766H179.164C189.789 156.766 198.434 148.121 198.434 137.496V29.1641C198.434 18.5391 189.789 9.89453 179.164 9.89453L179.168 9.89062ZM119.691 182.5L121.188 184.891H78.8047L80.3008 182.5C83.543 177.316 85.3867 169.164 85.7734 158.273L85.8281 156.766H114.168L114.223 158.273C114.609 169.164 116.453 177.316 119.695 182.5H119.691ZM179.168 151.559H20.832C13.0781 151.559 6.76953 145.25 6.76953 137.496V123.434H193.23V137.496C193.23 145.25 186.922 151.559 179.168 151.559ZM193.23 118.227H6.76953V29.1641C6.76953 21.4102 13.0781 15.1016 20.832 15.1016H179.168C186.922 15.1016 193.23 21.4102 193.23 29.1641V118.227Z" fill="black"/>
<path d="M100 144.273C103.739 144.273 106.77 141.243 106.77 137.504C106.77 133.765 103.739 130.734 100 130.734C96.2613 130.734 93.2305 133.765 93.2305 137.504C93.2305 141.243 96.2613 144.273 100 144.273Z" fill="black"/>
<path d="M162.668 134.895H162.586C161.148 134.895 160.023 136.039 160.023 137.5C160.023 138.187 160.301 138.84 160.801 139.332C161.305 139.828 161.969 140.102 162.672 140.102C164.109 140.102 165.277 138.934 165.277 137.496C165.277 136.059 164.109 134.891 162.672 134.891L162.668 134.895Z" fill="black"/>
</svg>
