<svg width="200" height="200" viewBox="0 0 200 200" fill="none" xmlns="http://www.w3.org/2000/svg">
<path d="M133.27 2.14844H66.7266C56.1953 2.16016 47.6133 10.7422 47.6016 21.2773V178.727C47.6133 189.262 56.1914 197.84 66.7266 197.852H133.27C143.801 197.84 152.383 189.262 152.395 178.727V21.2734C152.383 10.7422 143.801 2.16016 133.266 2.14844H133.27ZM147.602 178.73C147.594 186.625 141.168 193.051 133.273 193.059H66.7266C58.832 193.051 52.4062 186.625 52.3984 178.73V21.2734C52.4062 13.3789 58.832 6.94922 66.7266 6.94141H133.273C141.168 6.94922 147.598 13.3789 147.602 21.2695V178.73Z" fill="black"/>
<path d="M100 166.484C96.5547 166.484 93.7539 169.285 93.7539 172.73C93.7539 176.176 96.5547 178.98 100 178.98C103.445 178.98 106.246 176.176 106.246 172.73C106.246 169.285 103.445 166.484 100 166.484Z" fill="black"/>
<path d="M113.637 20.3281H86.3633C85.043 20.3281 83.9648 21.4023 83.9648 22.7227C83.9648 24.043 85.0391 25.1211 86.3633 25.1211H113.637C114.957 25.1211 116.031 24.0469 116.031 22.7227C116.031 21.3984 114.957 20.3281 113.637 20.3281Z" fill="black"/>
</svg>
