<svg width="39" height="29" viewBox="0 0 39 29" fill="none" xmlns="http://www.w3.org/2000/svg">
<path d="M36.3552 0.833008H3.31176C1.94305 0.833008 0.833496 1.93913 0.833496 3.3036V26.3624C0.833496 27.7269 1.94305 28.833 3.31176 28.833H36.3552C37.7239 28.833 38.8335 27.7269 38.8335 26.3624V3.3036C38.8335 1.93913 37.7239 0.833008 36.3552 0.833008Z" fill="white"/>
<g clip-path="url(#clip0_3178_64842)">
<path d="M7.36116 11.2305C8.62711 11.2305 9.65966 12.4965 9.65966 14.0523C9.65966 15.6082 8.62652 16.8741 7.36116 16.8741C6.09581 16.8741 5.06561 15.6082 5.06561 14.0523C5.06561 12.4965 6.09581 11.2305 7.36411 11.2305M7.36411 10C5.50822 10 4.00476 11.8145 4.00476 14.0523C4.00476 16.2902 5.50998 18.1054 7.36411 18.1054C9.21823 18.1054 10.7235 16.2909 10.7235 14.0523C10.7235 11.8138 9.21588 10 7.36116 10H7.36411Z" fill="#1D559F"/>
<path d="M21.0461 14.6669C20.8351 13.3221 19.8485 12.3011 18.6663 12.3011C17.3302 12.3011 16.2434 13.6038 16.2434 15.2053C16.2434 16.8068 17.3302 18.1101 18.6663 18.1101C19.1135 18.1045 19.5508 17.9563 19.9298 17.6819C20.3087 17.4075 20.6147 17.0175 20.8139 16.555L19.8456 16.2888C19.5662 16.7149 19.1784 17.0164 18.6669 17.0164C18.0103 17.0164 17.3832 16.4427 17.2618 15.6756H21.0579C21.0725 15.5344 21.0802 15.3924 21.0809 15.2502C21.0811 15.0551 21.0695 14.8602 21.0461 14.6669ZM17.2583 14.6669C17.4463 13.9326 18.0062 13.3983 18.6663 13.3983C19.3263 13.3983 19.8868 13.9339 20.0742 14.6697L17.2583 14.6669Z" fill="#1D559F"/>
<path d="M24.5816 10H21.8552V18.1047H22.9998V15.0365H24.5816C25.1599 15.0365 25.7146 14.7712 26.1235 14.2989C26.5325 13.8267 26.7622 13.1861 26.7622 12.5183C26.7622 11.8504 26.5325 11.2098 26.1235 10.7376C25.7146 10.2653 25.1599 10 24.5816 10ZM24.5816 13.8516H22.9998V11.1849H24.5816C24.8878 11.1849 25.1815 11.3254 25.398 11.5755C25.6145 11.8255 25.7362 12.1646 25.7362 12.5183C25.7362 12.8719 25.6145 13.211 25.398 13.461C25.1815 13.7111 24.8878 13.8516 24.5816 13.8516Z" fill="#1D559F"/>
<path d="M30.4793 12.3209V13.0662C30.3066 12.8362 30.0939 12.6506 29.8551 12.5217C29.6163 12.3927 29.3567 12.3231 29.0931 12.3175C27.7735 12.3175 26.7032 13.6147 26.7032 15.2149C26.7032 16.815 27.7735 18.1122 29.0931 18.1122C29.61 18.1122 30.1439 17.8168 30.4793 17.4091V18.1068H31.5059V12.3216L30.4793 12.3209ZM29.0931 16.9245C28.3411 16.9245 27.7299 16.1568 27.7299 15.2128C27.7299 14.2688 28.3411 13.5011 29.0931 13.5011C29.8451 13.5011 30.5211 14.117 30.5211 15.2128C30.5211 16.3086 29.8434 16.9245 29.0931 16.9245Z" fill="#1D559F"/>
<path d="M34.131 15.1325L33.0943 12.3154H31.9792L33.5475 16.5774L34.131 15.1325Z" fill="#1D559F"/>
<path d="M35.1105 12.3154L35.4505 13.2404L34.3962 15.8519H34.3956L33.8121 17.2968H33.8127L32.3175 21H33.4933L37 12.3154H35.1105Z" fill="#00A7D7"/>
<path d="M13.8164 12.2821C13.0538 12.2821 12.557 12.6387 12.2558 12.9627V12.3155H11.2291V18.1054H12.2558V14.9235C12.2558 14.2225 12.6831 13.4677 13.6219 13.4677C14.6297 13.4677 14.7417 14.4927 14.7417 14.9331V18.1054H15.7678V14.7854C15.7648 13.4657 15.0806 12.2821 13.8164 12.2821Z" fill="#1D559F"/>
</g>
<defs>
<clipPath id="clip0_3178_64842">
<rect width="33" height="11" fill="white" transform="translate(4 10)"/>
</clipPath>
</defs>
</svg>
